<?xml version="1.0" standalone="no"?><!DOCTYPE svg PUBLIC "-//W3C//DTD SVG 1.1//EN" "http://www.w3.org/Graphics/SVG/1.1/DTD/svg11.dtd"><svg t="1585020614948" class="icon" viewBox="0 0 1024 1024" version="1.1" xmlns="http://www.w3.org/2000/svg" p-id="1215" xmlns:xlink="http://www.w3.org/1999/xlink" width="200" height="200"><defs><style type="text/css"></style></defs><path d="M487.2 660.5L90.4 298.8c-19.7-19.7 17.4-88.6 62.8-134.1s114.4-82.5 134.1-62.8l369.1 401.4-169.2 157.2z" fill="#FFDC48" p-id="1216"></path><path d="M600.2 512.1l52.3-8.9-369.2-401.4c-9.7-9.7-48.5 8.3-73.2 20.2l390.1 390.1z" fill="#FFF6CF" p-id="1217"></path><path d="M116.7 208.9c-25.7 37.4-40.1 76-26.2 89.9l396.7 361.8 59.2-55-429.7-396.7z" fill="#FFB140" p-id="1218"></path><path d="M618 560l-77.6 108.3-32.4-28.6c28.5-49.9 79.2-92.6 110-79.7z" fill="#E89F56" p-id="1219"></path><path d="M662.3 497.4c21.1 21.1-1.3 77.7-50 126.4-20.2 20.2-41.7 35.9-61.5 45.8-1.3 0.6-2.5-0.8-1.8-2l69.8-109.4-23.6 6.6c-27.5 7.6-51.5 24.4-68.3 47.4l-38.5 53.1c-2.3 3.2-7.2 2.4-8.5-1.3-8.9-25.7 7.2-85.6 49.7-128.1 48.7-48.6 111.6-59.6 132.7-38.5z" fill="#FFE161" p-id="1220"></path><path d="M927.8 876s-116.7 104.2-234.6 4c-67.3-57.1-57.3-165.5-55-184.3-2.4-9.3 5.5-25.8 20.1-40.3L927.8 876z" fill="#CED4D8" p-id="1221"></path><path d="M575.7 564.8c-1.1 1-2.2 2.1-3.4 3.2-17.2 17.2-30 33.7-22.6 41.2l90.8 91c7.5 7.5 27.4-0.5 44.7-17.7 1.1-1.1 2.2-2.2 3.2-3.4L575.7 564.8z" fill="#CED4D8" p-id="1222"></path><path d="M932.2 819.9c11.1 26.5 6.2 49.3-11.3 61.9-20.2 11.7-48.1 13.6-79 8.2-85.6-14.8-151.1-76.7-173.7-156.8-7.2-25.6-9.1-52.4-6-78.9l0.2-1.5c9.9-11.2 21.2-16.2 37.2-19 129 26.8 200.9 102.7 232.6 186.1z" fill="#E7EDF1" p-id="1223"></path><path d="M932.2 819.9c11.1 26.5 6.2 49.3-11.3 61.9-20.2 11.7-48.1 13.6-79 8.2-85.6-14.8-151.1-76.7-173.7-156.8-7.2-25.6-9.1-52.4-6-78.9l0.2-1.5c9.9-11.2 21.2-16.2 37.2-19 129 26.8 200.9 102.7 232.6 186.1z" fill="#E7EDF1" p-id="1224"></path><path d="M932.2 819.9c-1.2-3.1-17.7-36.9-19-40L787.1 819c5.9 15.2 30.3 58.2 41 68.1 4.5 1.1 9.1 2 13.8 2.8 30.9 5.3 58.8 3.5 79-8.2 17.5-12.5 22.4-35.3 11.3-61.8z" fill="#F8FDFF" p-id="1225"></path><path d="M688.4 679.1L577.6 568.2c16.4-15 34.3-21.4 41.3-14.5l84.1 84c6.9 7.1 0.4 25-14.6 41.4z" fill="#E7EDF1" p-id="1226"></path><path d="M693.4 766.6c-6.5-0.2-13 0-19.3 0.6 0 0.2 0.1 0.4 0.1 0.6 13.5 56.2 57.3 100.8 116.3 113.4 9.7 2.1 19 3.1 27.5 2.8-2.9-63.2-56.7-114.8-124.6-117.4z" fill="#CED4D8" p-id="1227"></path><path d="M583.1 665.2l29.2 30.5c-1.9 25.1-3.3 110.6 56.6 182.5 30.3 36.3 71 54.9 119.4 54.9 16.5 0 33.9-2.2 52.1-6.5 52.4-12.5 86-32.8 87.6-33.9 0.1-0.1 0.3-0.2 0.4-0.3 22.7-16.5 28.7-46 15.7-77.2-17.9-46.9-45.9-87-83.4-119.3-41.5-35.8-93.6-60.6-154.7-73.9l-42.8-42.4c23.2-39.4 26.4-73.1 8.1-91.4l-1.2-1.2L296.8 92.9l-0.2-0.2c-29.2-29.2-107.3 17.7-152.4 62.8C99 200.6 52 278.7 81.3 307.9l0.3 0.3 390.9 367.6 0.1-0.1c2.5 2.3 5.7 3.9 9.3 4.4 0.9 0.1 1.8 0.2 2.7 0.2 5.6 0 11-2.7 14.3-7.2l10.7-14.5 24.6 22.4c2.4 2.2 5.5 3.4 8.7 3.4 12.1 1.9 28.9-10.2 40.2-19.2z m114-18.7c139.4 29 198.2 112.8 223 178 0.1 0.1 0.1 0.3 0.2 0.4 8.4 19.9 6 36.6-6.4 46-16.3 9.2-40.4 11.4-69.7 6.3-79-13.7-141.6-70.2-163.4-147.5-6.7-23.7-8.5-48.5-5.6-73.8 0.5-3.9-0.9-7.8-3.7-10.6l-77-77.6c7.3-3.8 13.5-4.6 15.8-4.1l80.3 79.5c1.8 1.7 4.1 2.9 6.5 3.4z m-588-399.4c12.1-24.5 32-51.9 53.4-73.3s48.8-41.3 73.3-53.4c25.2-12.4 39.3-12.4 42.4-9.5l344.7 363.7c-31.1 2.5-69.4 19.2-102.4 52.2-32.1 32.1-50.7 73.8-54.9 106.7l-365.9-344c-3.1-3.1-3-17.3 9.4-42.4z m381.6 393.3c2.4-26 18-65.2 48-95.2 42.6-42.6 97-53.1 113.4-39.5l0.7 0.7 0.1-0.1 0.1 0.1 0.2 0.2c7 7 5.6 27.2-8.9 54.1L628 544.6c-52.7-18.3-105 41.7-137.3 95.8z m34.3-2.8l13.8-18.7 14.1 14.7-12.4 18.1-15.5-14.1z m163.8 223.9c-60-72-51.3-159.2-50.2-169 0.5-3.9-0.8-7.7-3.5-10.5l-78.9-82.8c2.3-5.8 10.1-14.4 16.3-18.3l76.3 78.2c-2.4 26.5 0 52.6 7 77.6 24.3 86.4 93.9 149.7 181.9 165.7-46.8 11.5-105.8 10.9-148.9-40.9z" fill="#5E4153" p-id="1228"></path></svg>