<?xml version="1.0" standalone="no"?><!DOCTYPE svg PUBLIC "-//W3C//DTD SVG 1.1//EN" "http://www.w3.org/Graphics/SVG/1.1/DTD/svg11.dtd"><svg t="1585020670685" class="icon" viewBox="0 0 1024 1024" version="1.1" xmlns="http://www.w3.org/2000/svg" p-id="1352" xmlns:xlink="http://www.w3.org/1999/xlink" width="200" height="200"><defs><style type="text/css"></style></defs><path d="M753.1 850.4c16.3-87 14.3-185.9-3.8-273.4l21.7 14.9c9.5 6.5 21.7 7.2 31.9 2 75.1-38.1 117.2-101.2 140.4-178.5 3-9.9 0.9-20.5-5.6-28.5-29.4-36.6-116.2-142.7-160.3-178.6-49.9-40.5-110.1-53-110.1-53l-32.9-24.5c-2-1.5-4.7-1.3-6.5 0.3-35.8 31.1-106 36.2-112.7 36.6-6.7-0.4-76.9-5.5-112.7-36.6-1.9-1.6-4.6-1.8-6.5-0.3l-32.9 24.5s-60.2 12.5-110.1 53c-44.1 35.8-130.9 142-160.3 178.6-6.4 8-8.5 18.7-5.6 28.5 23.2 77.3 65.2 140.4 140.4 178.5 10.2 5.2 22.4 4.5 31.9-2l21.7-14.9c-18.2 87.8-20 186.9-3.6 274.3 2.1 11.1 10 20.3 20.7 23.9 136 45.6 281 43.9 433.1-0.5 11.2-3.3 19.7-12.7 21.8-24.3z" fill="#FFF0E3" p-id="1353"></path><path d="M934.8 387.9c-29.4-36.6-116.2-142.7-160.3-178.6-49.9-40.5-110.1-53-110.1-53l-32.9-24.5c-2-1.5-4.7-1.3-6.5 0.3-22.6 19.6-42.8 51.9-68.2 56.2l40.3 30s58 3.5 120 53.9C770.7 315.8 875 442.9 914 491.1c10.3-19.9 19.7-52.2 26.5-74.7 2.8-9.8 0.7-20.5-5.7-28.5z" fill="#F2D0BD" p-id="1354"></path><path d="M365 161.3s-60.2 12.5-110.1 53c-44.1 35.8-130.9 142-160.3 178.6-6.4 8-8.5 18.7-5.6 28.5 3.4 11.5 25.1 47.5 29.5 58.3 47.1-58.6 126.4-161.2 171.4-198.4 61.6-51 121.5-56.1 121.5-56.1L447 184c-18.6-2.9-40-28.2-60.7-38.5L365 161.3z" fill="#FFFFFF" p-id="1355"></path><path d="M620.3 545.5H611c-43.9 0-79.5-35.6-79.5-79.5v-69.1c58.6 10.8 115 12.4 168.3 0V466c0 43.9-35.6 79.5-79.5 79.5z" fill="#FF4E41" p-id="1356"></path><path d="M699.8 397.3v64.8c0 23.2-9.4 44.3-24.6 59.5-11.6 11.6-26.7 19.9-43.5 23.1-5.2 1-10.6 1.5-16 1.5-5.5 0-10.9-0.5-16.1-1.5-3.1-0.6-6.1-1.4-9.1-2.3 34.2-10.7 59-42.6 59-80.3v-57.6c17.1-1.3 33.8-3.8 50.3-7.6v0.4z" fill="#EA2824" p-id="1357"></path><path d="M728.2 877.8c11.3-3.3 19.8-12.6 22-24.2 0 0 19.1-107.3-3.4-271.8 0.7-1.7-0.4-0.2-0.6-0.4-29.8-16.9-66.6 5.5-65.5 39.7 1 33.5 2 95.2 1.9 136.3 0 32.3-24 59.6-56 64-125.8 17.2-255.4 7.9-361-30 1.9 20.7 4.8 41.6 8.8 63 2.1 11.1 10 20.4 20.7 24 135.9 43.3 280.5 42.3 433.1-0.6z" fill="#F2D0BD" p-id="1358"></path><path d="M662.6 147.4L629.7 123c-2-1.5-4.7-1.3-6.5 0.3-35.8 31.1-106 36.2-112.7 36.6-6.7-0.4-76.9-5.5-112.7-36.6-1.9-1.6-4.6-1.8-6.5-0.3l-32.9 24.5c96 63.5 197.4 63.8 304.2-0.1z" fill="#EAA78C" p-id="1359"></path><path d="M628 129.3s-37.4 67-115.8 67-115.8-67-115.8-67l-36.6 27.1c12.8 19.2 36.3 95.5 152.6 95.5 120.5 0 143.7-82.8 152.6-95.4l-37-27.2z" fill="#F9EDE1" p-id="1360"></path><path d="M631.2 208.1c21.4-22.1 29.3-45.4 33.7-51.7L628 129.3s-12.5 22.4-38.2 41.3l41.4 37.5z" fill="#D3BDB2" p-id="1361"></path><path d="M411.7 224.8c-21.4-22.1-41.9-62.1-46.3-68.4l36.9-27.1s21.9 37.8 47.7 56.7l-38.3 38.8z" fill="#FFFFFF" p-id="1362"></path><path d="M535.1 392.1a81.4 15.7 0 1 0 162.8 0 81.4 15.7 0 1 0-162.8 0Z" fill="#EFCAAF" p-id="1363"></path><path d="M892.6 422.5c-6.4-3.6-14.5-1.3-18.2 5.1-5.9 10.5-12.2 20.8-18.7 30.5-4.1 6.1-2.4 14.4 3.7 18.5 2.3 1.5 4.8 2.2 7.4 2.2 4.3 0 8.5-2.1 11.1-5.9 6.8-10.3 13.5-21.1 19.7-32.2 3.7-6.4 1.4-14.6-5-18.2zM842.2 499.3c-5.5-4.8-14-4.3-18.8 1.3-7.9 9.1-16.2 17.7-24.6 25.5-5.4 5-5.7 13.5-0.6 18.8 2.6 2.8 6.2 4.2 9.7 4.2 3.3 0 6.5-1.2 9.1-3.6 9-8.4 17.9-17.7 26.5-27.4 4.8-5.6 4.3-14-1.3-18.8z" fill="#5E4153" p-id="1364"></path><path d="M945.2 379.5c-34-42.3-118-144.6-162.3-180.6-45.4-36.9-98.1-51.5-112.3-54.9l-0.6-0.4-29.9-25.5c-3.6-3-8.5-4-13-2.5-0.5 0.2-1.1 0.4-1.6 0.5h-0.3c-1.1 0.2-2.1 0.6-3 1.1-75.2 24.7-148.9 24.9-219.3 0.4-1.2-0.7-2.4-1.2-3.8-1.4-0.2 0-0.4-0.1-0.6-0.1-0.4-0.1-0.7-0.3-1.1-0.4-4.5-1.7-9.6-0.8-13.2 2.4L353.8 144c-14 3.4-66.9 18-112.4 54.9-44.3 36-128.3 138.3-162.3 180.6a44.2 44.2 0 0 0-7.9 40.7C97.8 509 145.9 570 218.3 606.8c12.9 6.6 28.1 6.5 40.7 0-13.2 79.1-12.3 170.6 2.2 248 3.1 16.5 15 29.9 30.2 34.3 67.3 19.2 137.8 28.8 211 28.8 73.7 0 150.2-9.7 229-29.2 16.2-4 28.7-17.6 31.9-34.8 14.4-77.1 15.2-168.3 2.1-247.1 12.6 6.5 27.7 6.6 40.7 0 72.3-36.7 120.4-97.8 147.1-186.6 4.1-14 1.2-29.3-8-40.7zM631.3 148.2l16.5 12.1c-3.1 6.2-7.2 14.1-13 22.6l-18-17.9c6-6.1 10.8-11.9 14.5-16.8z m-14 54.9c-7.3 6.8-16.2 13.3-26.9 18.8L579 193.2c6.3-3.3 12.1-7 17.5-10.8l20.8 20.7z m-27.7-49.2c-17.2 14.7-42.9 29.1-77.5 29.1-34 0-59.4-13.9-76.6-28.4 50.3 11 101.9 10.8 154.1-0.7z m-24 77.8c-10.3 3-21.8 5.1-34.8 6.1v-29.3c8.4-1.1 16.2-2.8 23.6-5.1l11.2 28.3z m-61.5 6.7c-13.9-0.5-26.3-2.1-37.3-4.7l13.6-27.6c7.4 1.7 15.3 2.8 23.7 3.2v29.1z m-49.3-40.6l-13.5 27.5c-12.1-5.4-21.9-11.9-30.1-19l21.3-20.7c6.7 4.4 14.2 8.6 22.3 12.2z m-61.7-49.5c4.4 5.8 10.5 13.1 18.4 20.5l-18.3 17.8c-7.1-9.6-12.1-18.9-16.1-26.5l16-11.8z m534.5 264.3C903.2 494 859.4 549.8 794 583c-5.9 3-12.9 2.6-18.3-1.1l-3-2c5.2-4.1 6.6-11.6 3.1-17.4-3.8-6.3-12.1-8.2-18.3-4.4-5.7 3.5-9.8 5.6-12.1 6.7-2.2 0.2-4.4 0.9-6.3 2.2-4.5 3-6.8 8.5-5.7 13.8 18.2 88 19.4 184.6 3.7 268.2-1.3 6.9-6 12.3-12.1 13.8-152.3 37.6-295.8 37.8-426.3 0.6-5.6-1.6-10.1-6.9-11.3-13.6-15.8-84-14.7-180.8 3.6-269.1v-0.2c0.1-0.5 0.2-1.1 0.2-1.6v-0.3-1.7-0.4c-0.1-0.5-0.1-1-0.3-1.5v-0.2c-0.1-0.6-0.3-1.1-0.5-1.6 0-0.1-0.1-0.2-0.1-0.3-0.2-0.5-0.5-1-0.8-1.5v-0.1c-0.3-0.5-0.6-1-1-1.5-0.1-0.1-0.2-0.2-0.2-0.3-0.3-0.4-0.7-0.8-1.1-1.2l-0.1-0.1c-0.4-0.3-0.7-0.6-1.1-0.9-4.7-3.4-9.4-6.9-13.9-10.4-5.8-4.5-14.2-3.4-18.7 2.4-4.4 5.7-3.4 13.7 2 18.3L249 582c-5.4 3.7-12.4 4.1-18.3 1.1-65.5-33.3-109.2-89-133.6-170.5-1.7-5.7-0.5-11.8 3.2-16.4 2.1-2.6 4.6-5.7 7.4-9.1 2.2 4.6 6.9 7.5 12 7.5 1.3 0 2.7-0.2 4.1-0.6 7-2.2 10.9-9.7 8.7-16.7-3-9.5-4-15-4-15.2v-0.1c38-46 97.2-115.3 130.3-142.2 35.3-28.7 76.6-42.7 94.9-47.8 0.2 0.3 0.3 0.6 0.5 0.9 14.8 27.7 49.4 92.5 158.7 92.5 111.1 0 146-66.2 159.5-93.2 18.5 5.3 59.3 19.2 94.3 47.7 35 28.5 99.2 104.4 136.6 149.9-1.4 3.3-2.8 6.7-4.2 9.9-3 6.7 0.1 14.6 6.8 17.6 1.7 0.8 3.6 1.1 5.4 1.1 4.2 0 8.3-2 10.8-5.5 1.1 1.3 2 2.5 2.9 3.7 3.1 4.2 4.3 10.3 2.6 16z" fill="#5E4153" p-id="1365"></path><path d="M205.6 496.6c-5-5.4-13.4-5.8-18.8-0.8s-5.8 13.4-0.8 18.8c8.3 9.1 17.2 18.1 26.5 26.9 2.6 2.4 5.9 3.6 9.1 3.6 3.6 0 7.1-1.4 9.7-4.2 5-5.4 4.8-13.8-0.6-18.8-8.8-8.3-17.2-16.9-25.1-25.5zM153.2 425.1c-3.6-6.4-11.7-8.7-18.1-5.1-6.4 3.6-8.7 11.7-5.1 18.1 6 10.8 12.9 21.6 20.3 32.2 2.6 3.7 6.7 5.7 10.9 5.7 2.6 0 5.3-0.8 7.6-2.4 6-4.2 7.5-12.5 3.3-18.6-6.9-9.8-13.3-19.9-18.9-29.9zM701.6 376.5c-5.3 0-9.9 3.1-12 7.5-7.1 3.5-32.7 8.8-72.9 8.8-40.7 0-66.7-5.4-73.9-8.9-2.2-4.4-6.7-7.5-12-7.5-7.4 0-13.3 6-13.3 13.3v68c0 54.2 44.5 98.2 99.2 98.2 54.2 0 98.2-44.1 98.2-98.2v-68c0.1-7.2-5.9-13.2-13.3-13.2z m-13.3 81.4c0 39.5-32.1 71.6-71.6 71.6-40 0-72.6-32.1-72.6-71.6v-45.4c3.6 0.9 7 1.6 9.5 2 17.1 3.2 39.5 5 63 5s45.7-1.8 62.6-5c2.4-0.5 5.6-1.1 9-1.9v45.3z" fill="#5E4153" p-id="1366"></path></svg>